<svg width="241" height="241" viewBox="0 0 241 241" fill="none" xmlns="http://www.w3.org/2000/svg">
<rect x="83" y="46.0676" width="100" height="100" rx="10" transform="rotate(-9.24615 83 46.0676)" fill="#6B4EFF" fill-opacity="0.05"/>
<rect x="98" y="40" width="100" height="100" rx="10" fill="#6B4EFF" fill-opacity="0.05"/>
<g filter="url(#filter0_d_110_1888)">
<path d="M35 51C35 39.9543 43.9543 31 55 31H122.669C129.15 31 135.228 34.1401 138.979 39.4251L149.021 53.5749C152.772 58.8599 158.85 62 165.331 62H186C197.046 62 206 70.9543 206 82V182C206 193.046 197.046 202 186 202H55C43.9543 202 35 193.046 35 182V51Z" fill="white"/>
</g>
<defs>
<filter id="filter0_d_110_1888" x="0" y="0" width="241" height="241" filterUnits="userSpaceOnUse" color-interpolation-filters="sRGB">
<feFlood flood-opacity="0" result="BackgroundImageFix"/>
<feColorMatrix in="SourceAlpha" type="matrix" values="0 0 0 0 0 0 0 0 0 0 0 0 0 0 0 0 0 0 127 0" result="hardAlpha"/>
<feOffset dy="4"/>
<feGaussianBlur stdDeviation="17.5"/>
<feComposite in2="hardAlpha" operator="out"/>
<feColorMatrix type="matrix" values="0 0 0 0 0.419608 0 0 0 0 0.305882 0 0 0 0 1 0 0 0 0.07 0"/>
<feBlend mode="normal" in2="BackgroundImageFix" result="effect1_dropShadow_110_1888"/>
<feBlend mode="normal" in="SourceGraphic" in2="effect1_dropShadow_110_1888" result="shape"/>
</filter>
</defs>
</svg>
