<svg width="53" height="53" viewBox="0 0 53 53" fill="none" xmlns="http://www.w3.org/2000/svg">
<rect width="52.5159" height="52.5159" rx="26.258" fill="#6B4EFF" fill-opacity="0.1"/>
<path d="M20.1796 39.5863C20.1833 39.5856 20.1878 39.5845 20.1922 39.5834C20.2011 39.5811 20.2127 39.5777 20.2264 39.5736C20.2541 39.5653 20.293 39.5525 20.3417 39.5365C20.4391 39.5045 20.578 39.4572 20.7538 39.3969C21.1059 39.2759 21.6068 39.1018 22.2186 38.8861C23.4423 38.4547 25.1117 37.8591 26.9315 37.2054L33.5487 34.8285L34.4754 34.6713L35.0409 34.5814C35.5265 34.5156 35.9051 34.515 37.3436 34.515C38.1588 34.515 38.6515 34.5125 38.9559 34.5013C39.108 34.4958 39.2149 34.4878 39.2919 34.4769C39.3686 34.4661 39.4194 34.4519 39.4579 34.431H39.4569C39.4753 34.4216 39.4933 34.4157 39.5116 34.4086C39.5291 34.4018 39.5493 34.3937 39.5682 34.3832C39.6099 34.3599 39.6429 34.3245 39.6688 34.2592C39.6937 34.1962 39.7132 34.1031 39.7284 33.9623C39.7437 33.8208 39.7553 33.6273 39.7645 33.3607C39.8012 32.2942 39.7958 30.041 39.7958 25.2123V16.4076L39.5838 16.1957H39.5829C39.2242 15.8423 38.4032 15.0582 37.66 14.3568C37.2884 14.0061 36.936 13.676 36.6708 13.4301C36.5382 13.3072 36.4274 13.2051 36.3465 13.1322C36.3061 13.0958 36.2725 13.0664 36.2479 13.0453C36.2357 13.0348 36.2258 13.0255 36.2176 13.0189L36.1952 13.0033C36.1872 12.9988 36.1784 12.9962 36.1717 12.9945C36.1644 12.9926 36.1556 12.9911 36.1463 12.9896C36.1277 12.9867 36.1032 12.9833 36.0731 12.9808C36.0125 12.9758 35.9251 12.9713 35.8085 12.9672C35.5746 12.959 35.2188 12.9529 34.7098 12.9476C34.2005 12.9424 33.5373 12.9379 32.6883 12.9349L29.5516 12.9291C26.3702 12.9291 24.7408 12.931 23.8866 12.9447C23.4599 12.9516 23.2246 12.9612 23.0858 12.976C23.0166 12.9833 22.9694 12.9916 22.9335 13.0023C22.8963 13.0135 22.8718 13.0267 22.8495 13.0404V13.0414C22.7732 13.0875 22.7092 13.1316 22.659 13.1927C22.6081 13.255 22.574 13.3316 22.5506 13.4379C22.5049 13.6466 22.4979 13.9846 22.4979 14.5912C22.4979 15.0915 22.4955 15.3644 22.4833 15.515C22.4771 15.5909 22.4687 15.6305 22.4598 15.6517C22.4558 15.6614 22.4518 15.6647 22.4501 15.6664C22.4485 15.6678 22.4468 15.6696 22.4422 15.6713H22.4413C22.4404 15.6715 22.4389 15.6719 22.4374 15.6722C22.4343 15.6729 22.4298 15.6741 22.4247 15.6752C22.4143 15.6773 22.4001 15.6806 22.3827 15.684C22.3474 15.6907 22.2983 15.6993 22.2372 15.7103C22.1146 15.7323 21.9434 15.7623 21.7362 15.7982L20.1571 16.0677C19.3806 16.1985 18.8217 16.2981 18.4452 16.3734C18.2573 16.411 18.1141 16.4424 18.0116 16.4691C17.9604 16.4825 17.9179 16.4949 17.8856 16.5062C17.8547 16.5171 17.828 16.5287 17.8104 16.5414V16.5424C17.7302 16.6001 17.622 16.73 17.5624 16.8383L17.5614 16.8392C17.5371 16.884 17.5164 16.9227 17.5028 16.9652C17.4888 17.0089 17.4829 17.055 17.4842 17.1166C17.4869 17.2371 17.5182 17.4277 17.578 17.7943C17.6093 17.9979 17.6366 18.1858 17.6542 18.3236C17.6629 18.3926 17.6686 18.4486 17.6717 18.4877C17.6727 18.5003 17.6734 18.5107 17.6737 18.5189C17.669 18.5207 17.6631 18.5225 17.6571 18.5248C17.63 18.535 17.5903 18.5495 17.5399 18.5677C17.4385 18.6044 17.293 18.6561 17.1141 18.7191L15.7254 19.2015L13.4657 19.9916C13.2809 20.0612 13.1445 20.1483 13.0555 20.265C12.9662 20.3824 12.9286 20.5254 12.9286 20.6996C12.9286 20.7141 12.9322 20.7352 12.9374 20.7572C12.943 20.781 12.9513 20.8115 12.9618 20.848C12.9828 20.9215 13.0136 21.0215 13.0526 21.1429C13.1305 21.3859 13.2418 21.7183 13.3758 22.1097C13.644 22.8932 14.0032 23.9144 14.3671 24.932C14.7309 25.9496 15.0994 26.964 15.3866 27.7338C15.5301 28.1185 15.6538 28.4425 15.746 28.6752C15.7919 28.7912 15.8299 28.8851 15.8592 28.9525C15.8739 28.9861 15.887 29.0139 15.8973 29.0345C15.9025 29.0449 15.9076 29.0544 15.912 29.0619C15.9159 29.0684 15.9213 29.0769 15.9276 29.0834C16.0021 29.1633 16.1217 29.1988 16.2372 29.1996C16.3246 29.2001 16.4164 29.1815 16.4921 29.14L16.5614 29.0912L16.5624 29.0902L16.6141 29.0277C16.6591 28.9585 16.6815 28.8706 16.6815 28.7738C16.6815 28.7609 16.6778 28.7427 16.6737 28.725C16.6692 28.7056 16.6626 28.6804 16.6542 28.6508C16.6372 28.591 16.6124 28.5097 16.5799 28.4086C16.5148 28.2055 16.419 27.9208 16.2977 27.5677C16.1764 27.2146 16.0292 26.7925 15.8602 26.3138L15.2928 24.7211C14.9111 23.6622 14.5643 22.6929 14.3133 21.9857C14.1879 21.6323 14.0867 21.3442 14.0165 21.1429C13.9813 21.0422 13.9538 20.963 13.9354 20.9086C13.9262 20.8815 13.9195 20.8605 13.9149 20.8461C13.9144 20.8446 13.9134 20.8435 13.9129 20.8422C13.9186 20.8369 13.9273 20.8301 13.9393 20.8226C13.953 20.8141 13.9696 20.8053 13.9881 20.7972L14.0487 20.7758L14.0516 20.7748L16.0487 20.0892L17.3465 19.6488C17.5143 19.594 17.6509 19.5514 17.746 19.5228C17.7895 19.5097 17.8239 19.5 17.8485 19.4935L17.8495 19.4945C17.8553 19.5239 17.8644 19.5673 17.8749 19.6244C17.8959 19.7388 17.9255 19.9072 17.9637 20.1234C18.0402 20.556 18.1487 21.1809 18.2821 21.9506C18.5488 23.4899 18.9143 25.6103 19.3143 27.9398C19.7143 30.2694 20.0844 32.399 20.3583 33.9535C20.4952 34.7305 20.6077 35.3642 20.6883 35.807C20.7287 36.0284 20.7608 36.2032 20.784 36.3236C20.7956 36.3836 20.8054 36.4303 20.8124 36.4633C20.8158 36.4797 20.8188 36.4935 20.8212 36.5033C20.8223 36.508 20.824 36.5124 20.8251 36.516L20.8299 36.5306C20.8806 36.6256 20.9828 36.7092 21.0975 36.7689C21.2131 36.8291 21.3485 36.8685 21.4725 36.8685C21.4908 36.8685 21.5326 36.8637 21.5907 36.8558C21.6508 36.8477 21.7327 36.836 21.8329 36.8207C22.0334 36.7901 22.3097 36.7451 22.6415 36.6908C23.305 36.5823 24.1915 36.4339 25.1405 36.2719L27.5819 35.8529C27.802 35.8158 27.9931 35.7849 28.1483 35.7592C27.9472 35.833 27.6819 35.9294 27.3661 36.0443L24.4266 37.1078C23.2816 37.5208 22.2384 37.8936 21.4803 38.1615C21.1013 38.2955 20.7935 38.4033 20.5799 38.4769C20.4733 38.5137 20.3905 38.5422 20.3338 38.5609C20.3153 38.567 20.2995 38.5726 20.287 38.5765C20.2819 38.5632 20.276 38.5461 20.2684 38.5258C20.2471 38.4686 20.2159 38.3851 20.1766 38.2777C20.098 38.0628 19.9858 37.7529 19.8475 37.3715C19.5711 36.6087 19.1909 35.5595 18.7753 34.4066L18.7762 34.4056C18.3631 33.2525 17.9757 32.1935 17.6854 31.4154C17.5403 31.0264 17.419 30.7072 17.3309 30.4818C17.2871 30.3695 17.251 30.2804 17.2245 30.2172C17.2112 30.1856 17.2 30.1597 17.1913 30.141C17.187 30.1319 17.183 30.124 17.1796 30.1176L17.1659 30.097C17.0809 30.0032 16.9507 29.9649 16.827 29.972C16.7032 29.9792 16.5768 30.0323 16.4989 30.1312V30.1322C16.4651 30.1747 16.4357 30.2247 16.4149 30.2719C16.3945 30.3182 16.3797 30.3672 16.3797 30.4056C16.3798 30.4141 16.3814 30.4239 16.3827 30.4291C16.3844 30.4362 16.3875 30.4452 16.3905 30.4554C16.3965 30.4762 16.4056 30.5044 16.4169 30.5394C16.4395 30.61 16.4724 30.7096 16.5145 30.8334C16.5989 31.0811 16.7192 31.4279 16.8641 31.8402C17.1542 32.6651 17.5422 33.7544 17.9335 34.8441C18.3246 35.9337 18.7196 37.0241 19.0233 37.8529C19.1752 38.2673 19.3046 38.6168 19.3993 38.8676C19.4466 38.9928 19.4849 39.0941 19.5135 39.1664C19.5278 39.2024 19.5404 39.2317 19.5497 39.2533C19.5578 39.2723 19.5651 39.2896 19.5712 39.2992L19.618 39.3578C19.6716 39.4145 19.7457 39.4641 19.8251 39.5023C19.9316 39.5535 20.0545 39.5873 20.1649 39.5873L20.1796 39.5863ZM37.3172 16.2758C36.9228 16.2758 36.6444 16.2718 36.4588 16.2621C36.3659 16.2572 36.2972 16.2512 36.2499 16.2435C36.2262 16.2397 36.209 16.2357 36.1971 16.2318C36.1842 16.2275 36.1825 16.225 36.1844 16.2269C36.1861 16.2286 36.1837 16.2266 36.1796 16.2142C36.1757 16.2028 36.1717 16.1862 36.1678 16.1635C36.1602 16.118 36.1541 16.0526 36.1493 15.9642C36.1396 15.7879 36.1356 15.5251 36.1356 15.1566V14.223L36.6219 14.6771V14.6781L37.7821 15.7806H37.7831L38.2997 16.2719L37.3172 16.2758ZM23.4169 19.1254L23.4276 13.8588H35.202L35.2167 15.1302C35.2245 15.8931 35.2328 16.3043 35.2938 16.5541C35.325 16.6814 35.3709 16.7708 35.4383 16.8441C35.5045 16.916 35.5898 16.9703 35.6942 17.0316L35.9344 17.1732L35.9452 17.1791H35.9579L37.4637 17.1947L38.9188 17.2103V33.5853H23.4276V25.8676L23.4129 25.8539L23.2821 25.7279C23.1026 25.5442 22.819 25.5383 22.6337 25.7113L22.5135 25.8217L22.4979 25.8353V29.9086C22.4979 31.6522 22.5005 32.6699 22.5116 33.2699C22.5171 33.5697 22.5253 33.7668 22.536 33.8978C22.5465 34.0268 22.5601 34.098 22.5809 34.1429V34.1439L22.6346 34.2562C22.6551 34.2923 22.6818 34.3254 22.7215 34.3529C22.7992 34.4066 22.9261 34.4379 23.161 34.4584C23.6348 34.4997 24.5908 34.502 26.5965 34.515L29.7342 34.5385L25.9354 35.1869C24.7487 35.3908 23.6678 35.5709 22.8817 35.6976C22.4886 35.761 22.169 35.8113 21.9471 35.8441C21.8364 35.8605 21.7501 35.872 21.6913 35.8793C21.6703 35.8819 21.653 35.8848 21.6395 35.8861C21.6382 35.8796 21.6372 35.872 21.6356 35.8636C21.6283 35.8266 21.6182 35.7725 21.6053 35.7025C21.5796 35.5626 21.5424 35.3599 21.4969 35.1029C21.406 34.5885 21.2792 33.8575 21.1278 32.9828C20.8251 31.2335 20.4256 28.9081 20.0292 26.5844C19.6327 24.2607 19.2391 21.9385 18.9462 20.1957C18.7997 19.3242 18.6782 18.5968 18.5946 18.0873C18.5528 17.8328 18.5213 17.6324 18.4999 17.4955C18.4892 17.4271 18.4805 17.3747 18.4754 17.3392C18.4747 17.334 18.4741 17.329 18.4735 17.3246C18.4762 17.324 18.4793 17.3223 18.4823 17.3217C18.5116 17.3151 18.5542 17.3069 18.6083 17.2963C18.7168 17.2749 18.8708 17.2461 19.0555 17.2123C19.4249 17.1447 19.9169 17.0573 20.412 16.9711C20.9068 16.8848 21.4049 16.7994 21.7879 16.7357C21.9795 16.7039 22.1427 16.677 22.2616 16.6586C22.321 16.6493 22.3697 16.642 22.4051 16.6371C22.4218 16.6348 22.4356 16.6344 22.4462 16.6332C22.4506 16.6492 22.4563 16.6757 22.4608 16.7181C22.4711 16.8148 22.4787 16.9803 22.4842 17.2543C22.4953 17.8015 22.4979 18.7749 22.4979 20.4799V24.4008L22.5126 24.4144L22.6434 24.5404C22.812 24.7132 23.0728 24.7241 23.2577 24.5746H23.2587L23.3837 24.475L23.4012 24.4613V24.4388L23.4169 19.1254Z" fill="#6B4EFF" stroke="#6B4EFF" stroke-width="0.0926751"/>
<path d="M25.3423 18.8065C25.2586 18.8849 25.2115 18.9947 25.2115 19.0941C25.2115 19.1935 25.2586 19.3033 25.3423 19.3817L25.4678 19.5125H31.215C36.9517 19.5125 36.9622 19.5125 37.1034 19.4026C37.2864 19.2614 37.2917 18.9529 37.1191 18.7908L36.9988 18.6757H31.2307H25.4678L25.3423 18.8065Z" fill="#6B4EFF"/>
<path d="M25.4364 21.4997C25.201 21.5938 25.1435 21.918 25.3213 22.1481L25.4259 22.2841H31.2306C36.9622 22.2841 37.0301 22.2841 37.1347 22.1795C37.2968 22.0174 37.2759 21.6932 37.1034 21.5572C36.9622 21.4474 36.9517 21.4474 31.2568 21.4526C28.1034 21.4526 25.4991 21.4735 25.4364 21.4997Z" fill="#6B4EFF"/>
<path d="M25.3161 24.3863C25.2586 24.4491 25.2115 24.5694 25.2115 24.6635C25.2115 24.7576 25.2586 24.8779 25.3161 24.9407L25.4259 25.0557H31.2255C36.9622 25.0557 37.0302 25.0557 37.1348 24.9511C37.1975 24.8884 37.2394 24.7786 37.2394 24.6635C37.2394 24.5485 37.1975 24.4386 37.1348 24.3759C37.0302 24.2713 36.9622 24.2713 31.2255 24.2713H25.4259L25.3161 24.3863Z" fill="#6B4EFF"/>
<path d="M25.3214 27.1789C25.1854 27.3515 25.1802 27.5711 25.3109 27.728L25.4103 27.8535L31.1889 27.8692L36.9622 27.8797L37.0982 27.7698C37.276 27.6339 37.2969 27.3097 37.1348 27.1475C37.0302 27.0429 36.9622 27.0429 31.2307 27.0429H25.426L25.3214 27.1789Z" fill="#6B4EFF"/>
<path d="M25.3423 29.9453C25.2586 30.0238 25.2115 30.1336 25.2115 30.2329C25.2115 30.3323 25.2586 30.4421 25.3423 30.5206L25.4678 30.6513H31.2411H37.0145L37.1243 30.531C37.2917 30.3532 37.2812 30.0656 37.1034 29.9244C36.9622 29.8146 36.9517 29.8146 31.215 29.8146H25.4678L25.3423 29.9453Z" fill="#6B4EFF"/>
</svg>
